# xmcd
#
# Track frame offsets: 
#        150
#        9434
#        27536
#        50317
#        71962
#        93757
#        113936
#        131277
#        152407
#        160070
#        177705
#        198777
#        222755
#        246726
#
# Disc length: 3390 seconds
#
# Revision: 0
# Processed by: cddbd v1.5.2PL0 Copyright (c) Steve Scherf et al.
# Submitted via: ExactAudioCopy v0.99pb4
#
DISCID=bd0d3c0e
DTITLE=Various Artist - Love Maker by am:pm
DYEAR=2008
DGENRE=POP
TTITLE0=Intro (The Solitaire)
TTITLE1=Rak bplom bplom (Maem pat-ri-daa)
TTITLE2=Meua-rai nor (Krit Love is)
TTITLE3=Tang tang tee roo (Acappella 7)
TTITLE4=Kor kae ruam taang (am:pm - Ping)
TTITLE5=Boxer (Ford sop chai)
TTITLE6=Dee yoo laew (Five U)
TTITLE7=Kon chua kraao (Dtik ji-raa pon)
TTITLE8=Intermission (The Solitaire)
TTITLE9=Clear (Chim Acid sweet)
TTITLE10=Mai hen bpen-rai (Dang pan gon)
TTITLE11=Saai lom (Jennifer Kim)
TTITLE12=am:pm 's song (am:pm - Mac&Ping)
TTITLE13=Outtro (The Solitaire)
EXTD=
EXTT0=
EXTT1=
EXTT2=
EXTT3=
EXTT4=
EXTT5=
EXTT6=
EXTT7=
EXTT8=
EXTT9=
EXTT10=
EXTT11=
EXTT12=
EXTT13=
PLAYORDER=
